<?xml version="1.0" encoding="UTF-8"?>
<svg version="1.1" xmlns="http://www.w3.org/2000/svg" width="338" height="336">
<path d="M0 0 C1.15086594 -0.00855011 1.15086594 -0.00855011 2.32498169 -0.01727295 C3.94352875 -0.02666225 5.56209441 -0.03323256 7.18066406 -0.03710938 C9.59216186 -0.04671311 12.00276761 -0.07775146 14.4140625 -0.109375 C52.84633619 -0.37002522 91.9896129 14.71441713 120.7578125 40.203125 C121.26908691 40.64881836 121.78036133 41.09451172 122.30712891 41.55371094 C136.25942926 53.75935586 146.98815529 67.46984686 156.7578125 83.203125 C157.14066406 83.81849121 157.52351563 84.43385742 157.91796875 85.06787109 C170.9451081 106.48934331 178.81098437 133.33811206 178.9609375 158.4453125 C178.96663757 159.21255646 178.97233765 159.97980042 178.97821045 160.77029419 C178.98759975 162.38884125 178.99417006 164.00740691 178.99804688 165.62597656 C179.00765061 168.03747436 179.03868896 170.44808011 179.0703125 172.859375 C179.36624138 216.57720785 160.19804929 257.71999405 130.13330078 288.88720703 C113.7940158 305.3326853 93.91349072 318.14013787 72.3203125 326.515625 C71.5478418 326.81694336 70.77537109 327.11826172 69.97949219 327.42871094 C67.26080842 328.43207413 64.51774826 329.31928894 61.7578125 330.203125 C60.5207959 330.63850586 59.2837793 331.07388672 58.00927734 331.52246094 C43.81088468 336.14801879 29.36384721 335.97250915 14.59716797 335.85498047 C10.98306795 335.82649174 7.37080907 335.84341197 3.75677204 335.87219906 C-11.80987599 335.97726231 -26.43624396 335.4894727 -41.2421875 330.203125 C-42.69117697 329.71075053 -44.14039631 329.21905202 -45.58984375 328.72802734 C-65.49709772 321.92844187 -84.5033428 311.14778683 -100.2421875 297.203125 C-101.00909912 296.53458496 -101.00909912 296.53458496 -101.79150391 295.85253906 C-130.62868913 270.62541275 -154.77577311 231.38586095 -157.43344116 192.3973999 C-157.71641313 185.81113252 -157.75610048 179.22755437 -157.74316406 172.63598633 C-157.74219604 169.17118014 -157.78385042 165.7086266 -157.828125 162.24414062 C-158.03196679 124.27712769 -143.48409786 86.69277301 -118.2421875 58.203125 C-117.57364746 57.43621338 -117.57364746 57.43621338 -116.89160156 56.65380859 C-88.21397268 23.87234607 -44.15682575 0.26372731 0 0 Z " fill="#FDFDFD" transform="translate(157.2421875,0.796875)"/>
<path d="M0 0 C1.40584351 0.00386719 1.40584351 0.00386719 2.84008789 0.0078125 C11.86427991 0.19821304 20.51759972 1.35419164 28.8125 5.0625 C30.33423828 5.73152344 30.33423828 5.73152344 31.88671875 6.4140625 C32.62535156 6.75179687 33.36398438 7.08953125 34.125 7.4375 C34.125 8.0975 34.125 8.7575 34.125 9.4375 C34.805625 9.685 35.48625 9.9325 36.1875 10.1875 C42.91012817 13.04819284 46.58108303 15.6978154 51.125 21.4375 C51.90617187 22.02789062 52.68734375 22.61828125 53.4921875 23.2265625 C56.49905942 25.75162111 58.54299965 28.52924024 60.625 31.8125 C61.01300781 32.41956787 61.40101563 33.02663574 61.80078125 33.65209961 C72.3109126 50.73765385 73.74425745 71.46164502 69.31640625 90.77734375 C67.0643696 97.6958957 63.86182322 104.20152749 60.125 110.4375 C59.135 110.9325 59.135 110.9325 58.125 111.4375 C57.63 112.283125 57.135 113.12875 56.625 114 C56.13 114.804375 55.635 115.60875 55.125 116.4375 C54.465 116.4375 53.805 116.4375 53.125 116.4375 C52.89683594 116.99953125 52.66867188 117.5615625 52.43359375 118.140625 C50.76437691 121.07047426 48.69225179 122.93653363 46.1875 125.1875 C45.31222656 125.98671875 44.43695313 126.7859375 43.53515625 127.609375 C41.125 129.4375 41.125 129.4375 38.125 129.4375 C38.125 130.0975 38.125 130.7575 38.125 131.4375 C20.25430948 140.87650773 2.09371257 144.06585154 -17.875 139.4375 C-25.46235436 137.06699248 -32.40571836 134.06626414 -38.875 129.4375 C-39.57496094 128.95152344 -40.27492187 128.46554688 -40.99609375 127.96484375 C-44.95353063 125.12565509 -47.91789682 122.34510064 -50.875 118.4375 C-51.535 117.98375 -52.195 117.53 -52.875 117.0625 C-55.7530163 114.72411176 -57.16577514 111.6557058 -58.875 108.4375 C-59.37 107.6125 -59.865 106.7875 -60.375 105.9375 C-60.87 105.1125 -61.365 104.2875 -61.875 103.4375 C-62.51953125 102.40367187 -63.1640625 101.36984375 -63.828125 100.3046875 C-66.06514336 96.36532275 -67.18374495 92.4734226 -68.125 88.0625 C-68.29193359 87.28084473 -68.45886719 86.49918945 -68.63085938 85.69384766 C-72.19856863 67.58954347 -69.35062679 50.83297477 -60.875 34.4375 C-60.215 34.4375 -59.555 34.4375 -58.875 34.4375 C-58.79121094 33.71175781 -58.70742187 32.98601562 -58.62109375 32.23828125 C-57.71647259 28.84239972 -56.30124616 27.20246643 -53.9375 24.625 C-53.22722656 23.83480469 -52.51695313 23.04460937 -51.78515625 22.23046875 C-49.875 20.4375 -49.875 20.4375 -47.875 20.4375 C-47.545 19.4475 -47.215 18.4575 -46.875 17.4375 C-44.51171875 15.46484375 -44.51171875 15.46484375 -41.5625 13.375 C-40.59699219 12.68277344 -39.63148438 11.99054688 -38.63671875 11.27734375 C-32.87287686 7.4375 -32.87287686 7.4375 -28.875 7.4375 C-28.875 6.7775 -28.875 6.1175 -28.875 5.4375 C-19.22184265 1.80946771 -10.35293599 -0.04056992 0 0 Z " fill="#010101" transform="translate(171.875,119.5625)"/>
<path d="M0 0 C5.94 0.495 5.94 0.495 12 1 C11.38522441 6.72603356 10.34889824 12.15672735 8.93359375 17.734375 C8.73524429 18.53482239 8.53689484 19.33526978 8.33253479 20.15997314 C7.70522318 22.69109337 7.07211762 25.2207024 6.4375 27.75 C5.59757285 31.09766889 4.76371052 34.44676165 3.93359375 37.796875 C3.73986679 38.56046326 3.54613983 39.32405151 3.34654236 40.11077881 C2.49613618 43.54511984 2 46.43706794 2 50 C3.216875 50.226875 4.43375 50.45375 5.6875 50.6875 C13.9321223 52.51673474 21.80906268 55.58793337 29 60 C30.03125 60.391875 31.0625 60.78375 32.125 61.1875 C40.25300062 64.55937799 47.6132996 71.03907962 54 77 C54 77.66 54 78.32 54 79 C54.556875 79.226875 55.11375 79.45375 55.6875 79.6875 C58.63246684 81.35896766 60.68156544 83.55276352 63 86 C62.67 86.66 62.34 87.32 62 88 C61.05382812 87.154375 60.10765625 86.30875 59.1328125 85.4375 C36.56837078 65.85043145 9.39827764 59.55101589 -20 61 C-35.66727534 62.41559406 -49.43056474 68.83835441 -62 78 C-63.02867187 78.72058594 -64.05734375 79.44117187 -65.1171875 80.18359375 C-70.67143743 83.9736068 -70.67143743 83.9736068 -75 89 C-75.66 89 -76.32 89 -77 89 C-77.26554687 89.56976563 -77.53109375 90.13953125 -77.8046875 90.7265625 C-79.06612743 93.12577179 -80.52176608 95.19012773 -82.125 97.375 C-98.44501011 120.63101441 -103.45618653 145.22035474 -99 173.5 C-96.48351727 184.81218903 -91.42751626 195.67831118 -84.94873047 205.25585938 C-84 207 -84 207 -84 210 C-83.34 210 -82.68 210 -82 210 C-80.39267014 212.18094944 -78.87486672 214.37209752 -77.375 216.625 C-73.90461905 221.70032095 -70.69004645 225.67973384 -65.3984375 228.984375 C-64.93695313 229.31953125 -64.47546875 229.6546875 -64 230 C-64 230.66 -64 231.32 -64 232 C-62.68 232.33 -61.36 232.66 -60 233 C-60 233.66 -60 234.32 -60 235 C-59.0925 235.28875 -58.185 235.5775 -57.25 235.875 C-54.67797092 236.76531776 -52.38653234 237.71494413 -50 239 C-50 239.66 -50 240.32 -50 241 C-48.948125 241.1546875 -48.948125 241.1546875 -47.875 241.3125 C-45 242 -45 242 -42.33203125 243.375 C-23.07035208 252.76873803 2.70321277 253.1569752 23 247 C27.62570515 245.31449628 32.1503478 243.42439712 36.6484375 241.42578125 C40 240 40 240 42 240 C42 239.34 42 238.68 42 238 C44.15776652 236.36297048 46.32161501 234.8276791 48.5625 233.3125 C53.90502926 229.60743519 58.61115678 225.82053272 63 221 C63.96292969 220.07574219 63.96292969 220.07574219 64.9453125 219.1328125 C67.17486559 216.81848552 68.9364059 214.40063754 70.75 211.75 C71.67039062 210.41195312 71.67039062 210.41195312 72.609375 209.046875 C73.06828125 208.37140625 73.5271875 207.6959375 74 207 C75 209 75 209 74.44140625 210.9453125 C74.00634766 212.02425781 74.00634766 212.02425781 73.5625 213.125 C73.27503906 213.84945312 72.98757813 214.57390625 72.69140625 215.3203125 C72.46324219 215.87460938 72.23507812 216.42890625 72 217 C73.0828125 217.1546875 73.0828125 217.1546875 74.1875 217.3125 C77.25958758 218.06345474 79.36003721 219.2875917 82 221 C82.66 221.33 83.32 221.66 84 222 C84 222.66 84 223.32 84 224 C85.2065625 224.3403125 85.2065625 224.3403125 86.4375 224.6875 C90.92190102 226.33964774 94.87452261 228.60893612 99 231 C100.35395339 231.77120788 101.70809765 232.54208085 103.0625 233.3125 C104.031875 233.869375 105.00125 234.42625 106 235 C105.75 237.375 105.75 237.375 105 240 C103.2109375 241.2578125 103.2109375 241.2578125 101 242 C99.0546875 241.53125 99.0546875 241.53125 96.875 240.5 C92.05053112 238.39063103 87.18360956 236.64691989 82.1875 235 C81.41535156 234.74460449 80.64320313 234.48920898 79.84765625 234.22607422 C73.25901805 232.0607227 66.64229544 229.99503573 60 228 C60 228.66 60 229.32 60 230 C59.34 230 58.68 230 58 230 C57.67 230.99 57.34 231.98 57 233 C53.92650709 236.41499213 50.9056201 238.65662794 47 241 C45.824375 242.2065625 45.824375 242.2065625 44.625 243.4375 C41.5678267 246.42188346 38.76325437 247.98397087 35 250 C34.0925 250.5775 33.185 251.155 32.25 251.75 C30 253 30 253 27 253 C27 253.66 27 254.32 27 255 C3.8632848 263.69854932 -20.38774684 268.90844609 -45 263 C-45.90492188 262.82855469 -46.80984375 262.65710938 -47.7421875 262.48046875 C-64.53834794 258.95281988 -84.43976927 249.94430467 -95 236 C-96.65261839 234.97695052 -98.31791365 233.97383946 -100 233 C-100.66 232.01 -101.32 231.02 -102 230 C-106.52335553 228.26151545 -110.30344069 229.70097494 -114.6875 231.1875 C-115.40518555 231.42162598 -116.12287109 231.65575195 -116.86230469 231.89697266 C-121.32210722 233.37250949 -125.68296618 235.01403239 -130.01953125 236.8203125 C-134.45278306 238.57502029 -138.94232797 240.161833 -143.4375 241.75 C-144.32727539 242.0682373 -145.21705078 242.38647461 -146.13378906 242.71435547 C-146.97522461 243.00971191 -147.81666016 243.30506836 -148.68359375 243.609375 C-149.44212646 243.87717773 -150.20065918 244.14498047 -150.98217773 244.42089844 C-153 245 -153 245 -156 245 C-156.67119549 243.5437455 -157.33681807 242.08492133 -158 240.625 C-158.556875 239.40683594 -158.556875 239.40683594 -159.125 238.1640625 C-160 236 -160 236 -160 234 C-156.48141867 230.74505877 -152.84590538 228.44053685 -148 228 C-148 227.34 -148 226.68 -148 226 C-146.29101562 224.65893555 -146.29101562 224.65893555 -143.90625 223.13671875 C-142.606875 222.30043945 -142.606875 222.30043945 -141.28125 221.44726562 C-140.3634375 220.86654297 -139.445625 220.28582031 -138.5 219.6875 C-137.1696875 218.83381836 -137.1696875 218.83381836 -135.8125 217.96289062 C-134.05396274 216.83665095 -132.29227434 215.71531513 -130.52734375 214.59912109 C-128.88962452 213.56289032 -127.25648144 212.51937711 -125.62890625 211.46728516 C-124.91605469 211.01015137 -124.20320313 210.55301758 -123.46875 210.08203125 C-122.84419922 209.67831299 -122.21964844 209.27459473 -121.57617188 208.85864258 C-120 208 -120 208 -118 208 C-118 206.68 -118 205.36 -118 204 C-118.66 204 -119.32 204 -120 204 C-129.41866862 177.44576886 -129.41866862 177.44576886 -130 166 C-130.03561035 165.30165039 -130.0712207 164.60330078 -130.10791016 163.88378906 C-130.89915048 145.66577302 -128.39617052 128.70243697 -121 112 C-120.4740625 110.79601562 -119.948125 109.59203125 -119.40625 108.3515625 C-115.38781076 99.76499187 -110.37666256 92.01782607 -104 85 C-103.34 85 -102.68 85 -102 85 C-101.74863281 84.42636719 -101.49726562 83.85273437 -101.23828125 83.26171875 C-95.1140547 72.07582862 -79.67702162 62.48596004 -68 58 C-67.01 58 -66.02 58 -65 58 C-65 57.34 -65 56.68 -65 56 C-41.75089072 47.86441957 -41.75089072 47.86441957 -31.125 48.125 C-28.43037017 48.12166374 -28.43037017 48.12166374 -26 47 C-22.91381605 42.93356216 -20.93003993 38.73617306 -19 34 C-18.34 34 -17.68 34 -17 34 C-16.86271484 32.97712891 -16.86271484 32.97712891 -16.72265625 31.93359375 C-15.83230232 28.31923806 -14.22360565 25.29476147 -12.4375 22.0625 C-12.086875 21.41659912 -11.73625 20.77069824 -11.375 20.10522461 C-7.6862535 13.34553102 -3.86017597 6.66291012 0 0 Z " fill="#050505" transform="translate(194,29)"/>
<path d="M0 0 C1 2 1 2 0.44140625 3.9453125 C0.15136719 4.66460937 -0.13867188 5.38390625 -0.4375 6.125 C-0.86869141 7.21167969 -0.86869141 7.21167969 -1.30859375 8.3203125 C-1.53675781 8.87460938 -1.76492188 9.42890625 -2 10 C-1.278125 10.103125 -0.55625 10.20625 0.1875 10.3125 C3.25958758 11.06345474 5.36003721 12.2875917 8 14 C8.99 14.495 8.99 14.495 10 15 C10 15.66 10 16.32 10 17 C10.804375 17.226875 11.60875 17.45375 12.4375 17.6875 C16.92190102 19.33964774 20.87452261 21.60893612 25 24 C26.35395339 24.77120788 27.70809765 25.54208085 29.0625 26.3125 C30.031875 26.869375 31.00125 27.42625 32 28 C31.75 30.375 31.75 30.375 31 33 C29.2109375 34.2578125 29.2109375 34.2578125 27 35 C25.0546875 34.53125 25.0546875 34.53125 22.875 33.5 C18.05053112 31.39063103 13.18360956 29.64691989 8.1875 28 C7.41535156 27.74460449 6.64320313 27.48920898 5.84765625 27.22607422 C-0.74098195 25.0607227 -7.35770456 22.99503573 -14 21 C-14 21.66 -14 22.32 -14 23 C-14.66 23 -15.32 23 -16 23 C-16.495 24.485 -16.495 24.485 -17 26 C-20.07349291 29.41499213 -23.0943799 31.65662794 -27 34 C-27.78375 34.804375 -28.5675 35.60875 -29.375 36.4375 C-32.4321733 39.42188346 -35.23674563 40.98397087 -39 43 C-39.9075 43.5775 -40.815 44.155 -41.75 44.75 C-44 46 -44 46 -47 46 C-47 46.66 -47 47.32 -47 48 C-49.97 48.99 -52.94 49.98 -56 51 C-55.67 49.68 -55.34 48.36 -55 47 C-56.85164036 44.24743206 -56.85164036 44.24743206 -59 42 C-57.94941406 41.68546875 -56.89882812 41.3709375 -55.81640625 41.046875 C-48.29792769 38.76483144 -41.13616593 36.32200828 -34 33 C-33.34 33 -32.68 33 -32 33 C-32 32.34 -32 31.68 -32 31 C-29.84223348 29.36297048 -27.67838499 27.8276791 -25.4375 26.3125 C-20.09497074 22.60743519 -15.38884322 18.82053272 -11 14 C-10.35804688 13.38382813 -9.71609375 12.76765625 -9.0546875 12.1328125 C-6.82513441 9.81848552 -5.0635941 7.40063754 -3.25 4.75 C-2.63640625 3.85796875 -2.0228125 2.9659375 -1.390625 2.046875 C-0.93171875 1.37140625 -0.4728125 0.6959375 0 0 Z " fill="#101010" transform="translate(268,236)"/>
<path d="M0 0 C0 3 0 3 -2 6 C-1.34 6.33 -0.68 6.66 0 7 C-0.99 7 -1.98 7 -3 7 C-3 7.66 -3 8.32 -3 9 C-3.66 9 -4.32 9 -5 9 C-5.33 9.99 -5.66 10.98 -6 12 C-9.07349291 15.41499213 -12.0943799 17.65662794 -16 20 C-16.78375 20.804375 -17.5675 21.60875 -18.375 22.4375 C-21.4321733 25.42188346 -24.23674563 26.98397087 -28 29 C-28.9075 29.5775 -29.815 30.155 -30.75 30.75 C-33 32 -33 32 -36 32 C-36 32.66 -36 33.32 -36 34 C-38.97 34.99 -41.94 35.98 -45 37 C-44.67 35.68 -44.34 34.36 -44 33 C-45.85164036 30.24743206 -45.85164036 30.24743206 -48 28 C-46.94941406 27.68546875 -45.89882812 27.3709375 -44.81640625 27.046875 C-37.29792769 24.76483144 -30.13616593 22.32200828 -23 19 C-22.34 19 -21.68 19 -21 19 C-21 18.34 -21 17.68 -21 17 C-18.84223518 15.36297176 -16.6785571 13.82742976 -14.4375 12.3125 C-9.07941733 8.6040966 -4.41298684 4.8332713 0 0 Z " fill="#121212" transform="translate(257,250)"/>
<path d="M0 0 C8.69110781 3.07483237 16.31770011 9.76318677 23 16 C23 16.66 23 17.32 23 18 C23.556875 18.226875 24.11375 18.45375 24.6875 18.6875 C27.63246684 20.35896766 29.68156544 22.55276352 32 25 C31.67 25.66 31.34 26.32 31 27 C30.030625 26.14277344 29.06125 25.28554687 28.0625 24.40234375 C18.94719405 16.55598193 10.29420874 11.13019601 -1 7 C-0.01 6.01 0.98 5.02 2 4 C1.01 3.34 0.02 2.68 -1 2 C-0.67 1.34 -0.34 0.68 0 0 Z " fill="#222222" transform="translate(225,90)"/>
<path d="M0 0 C2.93879484 1.35236577 5.29232911 2.89942659 7.75 5 C8.67039063 5.7734375 8.67039063 5.7734375 9.609375 6.5625 C11 8 11 8 11 10 C11.556875 10.226875 12.11375 10.45375 12.6875 10.6875 C15.63246684 12.35896766 17.68156544 14.55276352 20 17 C19.67 17.66 19.34 18.32 19 19 C16.38128466 16.97646768 13.78300378 14.92819302 11.1875 12.875 C10.44951172 12.30523437 9.71152344 11.73546875 8.95117188 11.1484375 C4.75946842 7.81024832 1.97682229 5.14130066 0 0 Z " fill="#2E2E2E" transform="translate(237,98)"/>
<path d="M0 0 C0.99 0.33 1.98 0.66 3 1 C-2 6 -2 6 -3.8125 6.375 C-6.37619692 7.10748483 -7.95463172 8.31987605 -10 10 C-10.66 9.67 -11.32 9.34 -12 9 C-10.37680325 7.68527053 -8.751385 6.37328338 -7.125 5.0625 C-6.22007812 4.33160156 -5.31515625 3.60070312 -4.3828125 2.84765625 C-2 1 -2 1 0 0 Z " fill="#262626" transform="translate(136,129)"/>
<path d="M0 0 C0 3 0 3 -2 6 C-1.34 6.33 -0.68 6.66 0 7 C-0.99 7 -1.98 7 -3 7 C-3 7.66 -3 8.32 -3 9 C-3.66 9 -4.32 9 -5 9 C-5.33 9.99 -5.66 10.98 -6 12 C-6.99 11.01 -7.98 10.02 -9 9 C-6.03 6.03 -3.06 3.06 0 0 Z " fill="#3E3E3E" transform="translate(257,250)"/>
<path d="M0 0 C5.67023649 1.35005631 8.17957309 3.8157229 12 8 C11.67 8.66 11.34 9.32 11 10 C9.16375669 8.52444734 7.3310715 7.04446569 5.5 5.5625 C4.4790625 4.73878906 3.458125 3.91507812 2.40625 3.06640625 C1.6121875 2.38449219 0.818125 1.70257813 0 1 C0 0.67 0 0.34 0 0 Z " fill="#676767" transform="translate(245,107)"/>
<path d="M0 0 C1.65 1.65 3.3 3.3 5 5 C4.67 5.66 4.34 6.32 4 7 C3.34 7 2.68 7 2 7 C1.67 7.66 1.34 8.32 1 9 C-1.125 2.25 -1.125 2.25 0 0 Z " fill="#181818" transform="translate(115,245)"/>
<path d="M0 0 C0.33 0.99 0.66 1.98 1 3 C0.34 3 -0.32 3 -1 3 C-0.67 2.01 -0.34 1.02 0 0 Z M-3 3 C-2.01 3.33 -1.02 3.66 0 4 C-1.65 5.98 -3.3 7.96 -5 10 C-5.66 9.34 -6.32 8.68 -7 8 C-5.68 6.35 -4.36 4.7 -3 3 Z " fill="#2E2E2E" transform="translate(93,111)"/>
<path d="M0 0 C0.66 0.99 1.32 1.98 2 3 C0.71034824 4.37562854 -0.62689293 5.70766393 -2 7 C-2.66 7 -3.32 7 -4 7 C-2.79618552 4.50638429 -1.54571278 2.31856917 0 0 Z " fill="#353535" transform="translate(118,144)"/>
<path d="M0 0 C2.4375 0.375 2.4375 0.375 5 1 C5.33 1.66 5.66 2.32 6 3 C4.02 3.99 4.02 3.99 2 5 C1.34 3.35 0.68 1.7 0 0 Z " fill="#151515" transform="translate(92,257)"/>
<path d="M0 0 C1.32 0.33 2.64 0.66 4 1 C1.03 3.475 1.03 3.475 -2 6 C-2.66 5.67 -3.32 5.34 -4 5 C-2.68 3.35 -1.36 1.7 0 0 Z " fill="#4F4F4F" transform="translate(128,106)"/>
<path d="M0 0 C0.66 0 1.32 0 2 0 C2.66 1.98 3.32 3.96 4 6 C2.68 5.67 1.36 5.34 0 5 C-0.5625 3.0625 -0.5625 3.0625 -1 1 C-0.67 0.67 -0.34 0.34 0 0 Z " fill="#171717" transform="translate(235,97)"/>
<path d="M0 0 C1.98 0.495 1.98 0.495 4 1 C2.515 3.475 2.515 3.475 1 6 C0.34 5.34 -0.32 4.68 -1 4 C-0.625 1.875 -0.625 1.875 0 0 Z " fill="#272727" transform="translate(246,260)"/>
<path d="M0 0 C0.66 0.33 1.32 0.66 2 1 C1.67 1.66 1.34 2.32 1 3 C1.66 3.33 2.32 3.66 3 4 C1.1875 4.625 1.1875 4.625 -1 5 C-1.99 4.34 -2.98 3.68 -4 3 C-2.68 2.01 -1.36 1.02 0 0 Z " fill="#393939" transform="translate(53,250)"/>
</svg>
